<svg width="272" height="64" viewBox="0 0 272 64" fill="none" xmlns="http://www.w3.org/2000/svg">
    <path d="M23.3554 63.2405C18.9146 63.2405 14.9124 62.2262 11.3487 60.1977C7.83995 58.1143 5.0713 55.3183 3.04278 51.8095C1.01426 48.2459 0 44.2437 0 39.8028C0 35.362 1.01426 31.3872 3.04278 27.8784C5.0713 24.3696 7.83995 21.601 11.3487 19.5725C14.9124 17.544 18.9146 16.5297 23.3554 16.5297C26.5352 16.5297 29.4958 17.1054 32.237 18.2567C34.9783 19.3532 37.3357 20.8883 39.3094 22.862C41.3379 24.7808 42.7908 27.0835 43.668 29.7699L34.2107 33.8818C33.3883 31.6339 31.9903 29.8247 30.0166 28.4541C28.0977 27.0835 25.8773 26.3982 23.3554 26.3982C20.9979 26.3982 18.8872 26.9738 17.0231 28.1251C15.2139 29.2765 13.7885 30.8664 12.7468 32.8949C11.7051 34.9234 11.1843 37.2535 11.1843 39.8851C11.1843 42.5167 11.7051 44.8467 12.7468 46.8752C13.7885 48.9038 15.2139 50.4937 17.0231 51.645C18.8872 52.7963 20.9979 53.372 23.3554 53.372C25.9322 53.372 28.18 52.6867 30.0988 51.3161C32.0177 49.9454 33.3883 48.1088 34.2107 45.8062L43.668 50.0825C42.7908 52.6044 41.3654 54.8797 39.3917 56.9082C37.418 58.8819 35.0605 60.4444 32.3192 61.5957C29.578 62.6922 26.5901 63.2405 23.3554 63.2405Z" fill="#150E41"/>
    <path d="M110.922 62.2536V17.5165H121.037V26.3159L120.214 24.7534C121.256 22.067 122.956 20.0385 125.313 18.6679C127.726 17.2424 130.522 16.5297 133.701 16.5297C136.991 16.5297 139.897 17.2424 142.419 18.6679C144.995 20.0933 146.996 22.0944 148.422 24.6712C149.847 27.1931 150.56 30.1263 150.56 33.4706V62.2536H139.787V36.0199C139.787 34.0462 139.403 32.3467 138.636 30.9212C137.868 29.4958 136.799 28.3993 135.428 27.6317C134.113 26.8094 132.55 26.3982 130.741 26.3982C128.986 26.3982 127.424 26.8094 126.053 27.6317C124.683 28.3993 123.614 29.4958 122.846 30.9212C122.079 32.3467 121.695 34.0462 121.695 36.0199V62.2536H110.922Z" fill="#150E41"/>
    <path d="M160.739 62.2536V27.1383H152.844V17.5165H160.739V16.0363C160.739 12.6371 161.424 9.75882 162.795 7.40135C164.22 4.98906 166.194 3.15243 168.716 1.89146C171.238 0.630486 174.226 0 177.68 0C178.338 0 179.05 0.0548241 179.818 0.164472C180.64 0.2193 181.326 0.301538 181.874 0.411186V9.704C181.326 9.59435 180.805 9.53952 180.311 9.53952C179.873 9.4847 179.462 9.45729 179.078 9.45729C176.665 9.45729 174.801 10.0055 173.486 11.102C172.17 12.1437 171.512 13.7884 171.512 16.0363V17.5165H181.463V27.1383H171.512V62.2536H160.739Z" fill="#150E41"/>
    <path d="M204.787 63.2405C200.182 63.2405 196.152 62.1988 192.698 60.1155C189.244 58.0321 186.558 55.2086 184.639 51.645C182.72 48.0814 181.761 44.134 181.761 39.8028C181.761 35.3072 182.72 31.3324 184.639 27.8784C186.613 24.3696 189.272 21.601 192.616 19.5725C196.015 17.544 199.798 16.5297 203.965 16.5297C207.474 16.5297 210.544 17.1054 213.175 18.2567C215.862 19.408 218.137 20.9979 220.001 23.0264C221.865 25.055 223.291 27.385 224.277 30.0166C225.264 32.5934 225.758 35.3894 225.758 38.4048C225.758 39.1724 225.703 39.9673 225.593 40.7897C225.538 41.6121 225.401 42.3248 225.182 42.9279H190.642V34.7041H219.096L213.998 38.5693C214.491 36.0473 214.354 33.7995 213.587 31.8258C212.874 29.8521 211.668 28.2896 209.968 27.1383C208.323 25.987 206.322 25.4113 203.965 25.4113C201.717 25.4113 199.716 25.987 197.961 27.1383C196.207 28.2348 194.864 29.8795 193.932 32.0725C193.055 34.2107 192.726 36.8149 192.945 39.8851C192.726 42.6263 193.082 45.066 194.014 47.2042C195.001 49.2875 196.426 50.9049 198.29 52.0562C200.209 53.2075 202.402 53.7832 204.869 53.7832C207.337 53.7832 209.42 53.2623 211.119 52.2207C212.874 51.179 214.244 49.781 215.231 48.0266L223.948 52.3029C223.071 54.4411 221.701 56.3325 219.837 57.9773C217.973 59.622 215.752 60.9104 213.175 61.8424C210.653 62.7745 207.857 63.2405 204.787 63.2405Z" fill="#150E41"/>
    <path d="M251.03 63.2405C246.424 63.2405 242.395 62.1988 238.941 60.1155C235.487 58.0321 232.8 55.2086 230.881 51.645C228.963 48.0814 228.003 44.134 228.003 39.8028C228.003 35.3072 228.963 31.3324 230.881 27.8784C232.855 24.3696 235.514 21.601 238.858 19.5725C242.258 17.544 246.041 16.5297 250.207 16.5297C253.716 16.5297 256.786 17.1054 259.418 18.2567C262.104 19.408 264.379 20.9979 266.243 23.0264C268.108 25.055 269.533 27.385 270.52 30.0166C271.507 32.5934 272 35.3894 272 38.4048C272 39.1724 271.945 39.9673 271.836 40.7897C271.781 41.6121 271.644 42.3248 271.424 42.9279H236.885V34.7041H265.339L260.24 38.5693C260.734 36.0473 260.597 33.7995 259.829 31.8258C259.116 29.8521 257.91 28.2896 256.211 27.1383C254.566 25.987 252.565 25.4113 250.207 25.4113C247.959 25.4113 245.958 25.987 244.204 27.1383C242.449 28.2348 241.106 29.8795 240.174 32.0725C239.297 34.2107 238.968 36.8149 239.187 39.8851C238.968 42.6263 239.324 45.066 240.256 47.2042C241.243 49.2875 242.669 50.9049 244.533 52.0562C246.452 53.2075 248.645 53.7832 251.112 53.7832C253.579 53.7832 255.662 53.2623 257.362 52.2207C259.116 51.179 260.487 49.781 261.474 48.0266L270.191 52.3029C269.314 54.4411 267.943 56.3325 266.079 57.9773C264.215 59.622 261.995 60.9104 259.418 61.8424C256.896 62.7745 254.1 63.2405 251.03 63.2405Z" fill="#150E41"/>
</svg>
