<?xml version="1.0" encoding="utf-8"?>
<!-- Generator: Adobe Illustrator 22.1.0, SVG Export Plug-In . SVG Version: 6.00 Build 0)  -->
<svg version="1.1" id="Layer_1" xmlns="http://www.w3.org/2000/svg" xmlns:xlink="http://www.w3.org/1999/xlink" x="0px" y="0px"
	 viewBox="0 0 116 52" style="enable-background:new 0 0 116 52;" xml:space="preserve">
<style type="text/css">
	.st0{fill:#ffffff;}
</style>
<g>
	<g>
		<polygon class="st0" points="0,0.1 0,8.5 15.2,8.5 15.2,36.6 24.9,36.6 24.9,8.5 35.6,8.5 44,0.1 		"/>
		<polygon class="st0" points="106.3,0.1 106.3,26.9 83.4,0.1 72.1,11.4 72.1,36.6 82.2,36.6 82.2,14 102.7,36.6 116,36.6 116,0.1 
					"/>
		<polygon class="st0" points="51.5,8.5 71.1,8.5 79.5,0.1 47.9,0.1 39.5,8.6 39.5,36.6 49.1,36.6 49.1,23.1 58.7,23.1 66.6,15.2 
			49.1,15.2 49.1,11 		"/>
	</g>
	<g>
		<path class="st0" d="M4.1,45.3H1.3l0,4.8H0v-5.9h4.2L4.1,45.3z"/>
		<path class="st0" d="M10.5,44.5c0.4,0.2,0.7,0.4,0.9,0.7c0.2,0.3,0.3,0.7,0.3,1.1c0,0.4-0.1,0.8-0.3,1.1c-0.2,0.3-0.5,0.6-0.9,0.7
			c-0.4,0.2-0.8,0.3-1.4,0.3H8v1.6H6.6v-5.9h2.5C9.7,44.2,10.1,44.3,10.5,44.5z M10,47.1c0.2-0.2,0.3-0.4,0.3-0.8
			c0-0.3-0.1-0.6-0.3-0.8c-0.2-0.2-0.5-0.3-0.9-0.3H8v2h1.1C9.5,47.4,9.8,47.3,10,47.1z"/>
		<path class="st0" d="M19.5,44.2L17,48.9c-0.2,0.5-0.5,0.8-0.9,1c-0.3,0.2-0.7,0.3-1.1,0.3c-0.3,0-0.6-0.1-1-0.2l0.3-1
			c0.2,0.1,0.4,0.1,0.6,0.1c0.2,0,0.3,0,0.5-0.1c0.1-0.1,0.3-0.2,0.4-0.4l0.1-0.1l-2.3-4.3H15l1.6,3.2l1.6-3.2H19.5z"/>
		<path class="st0" d="M27.3,44.2v5.9h-1.4v-4.8h-2.7v4.8h-1.4v-5.9H27.3z"/>
		<path class="st0" d="M35.7,44.2v5.9h-1.4v-4.8h-2.7v4.8h-1.4v-5.9H35.7z"/>
		<path class="st0" d="M42.8,48.9H40l-0.5,1.3h-1.4l2.6-5.9h1.3l2.6,5.9h-1.4L42.8,48.9z M42.3,47.8l-0.9-2.3l-0.9,2.3H42.3z"/>
		<path class="st0" d="M53.2,47.7h-0.9v2.4h-1.4v-5.9h1.4v2.4h1l1.5-2.4h1.4l-1.9,2.8l2,3.1h-1.5L53.2,47.7z"/>
		<path class="st0" d="M59.6,49.8c-0.5-0.3-0.9-0.6-1.2-1.1c-0.3-0.5-0.4-1-0.4-1.6s0.1-1.1,0.4-1.6c0.3-0.5,0.7-0.8,1.2-1.1
			c0.5-0.3,1-0.4,1.7-0.4s1.2,0.1,1.6,0.4c0.5,0.3,0.9,0.6,1.2,1.1c0.3,0.5,0.4,1,0.4,1.6s-0.1,1.1-0.4,1.6
			c-0.3,0.5-0.7,0.8-1.2,1.1c-0.5,0.3-1,0.4-1.6,0.4S60.1,50.1,59.6,49.8z M62.2,48.8c0.3-0.2,0.5-0.4,0.7-0.7
			c0.2-0.3,0.2-0.6,0.2-1c0-0.4-0.1-0.7-0.2-1c-0.2-0.3-0.4-0.5-0.7-0.7c-0.3-0.2-0.6-0.2-0.9-0.2c-0.3,0-0.7,0.1-0.9,0.2
			c-0.3,0.2-0.5,0.4-0.7,0.7c-0.2,0.3-0.2,0.6-0.2,1c0,0.4,0.1,0.7,0.2,1c0.2,0.3,0.4,0.5,0.7,0.7c0.3,0.2,0.6,0.2,0.9,0.2
			C61.6,49.1,62,49,62.2,48.8z"/>
		<path class="st0" d="M72.5,50.1l0-3.5l-1.7,2.9h-0.6l-1.7-2.8v3.5h-1.3v-5.9h1.1l2.2,3.7l2.2-3.7h1.1l0,5.9H72.5z"/>
		<path class="st0" d="M82.2,44.2v5.9h-1.4v-4.8h-2.7v4.8h-1.4v-5.9H82.2z"/>
		<path class="st0" d="M89.3,48.9h-2.7L86,50.1h-1.4l2.6-5.9h1.3l2.6,5.9h-1.4L89.3,48.9z M88.9,47.8l-0.9-2.3L87,47.8H88.9z"/>
		<path class="st0" d="M99.1,44.2v5.9h-1.4v-2.4H95v2.4h-1.4v-5.9H95v2.3h2.7v-2.3H99.1z"/>
		<path class="st0" d="M102.1,44.2h1.4v3.8l2.8-3.8h1.3v5.9h-1.3v-3.8l-2.8,3.8h-1.3V44.2z"/>
		<path class="st0" d="M110.6,44.2h1.4v3.8l2.8-3.8h1.3v5.9h-1.3v-3.8l-2.8,3.8h-1.3V44.2z M111.6,42.6h0.9c0,0.4,0.2,0.6,0.7,0.6
			c0.2,0,0.4-0.1,0.5-0.2c0.1-0.1,0.2-0.3,0.2-0.5h0.9c0,0.4-0.1,0.7-0.4,1c-0.3,0.2-0.7,0.3-1.2,0.3
			C112.2,43.8,111.7,43.4,111.6,42.6z"/>
	</g>
</g>
</svg>
