<svg width="250" height="70" viewBox="0 0 124 34" fill="none" xmlns="http://www.w3.org/2000/svg">
    <path fill-rule="evenodd" clip-rule="evenodd" d="M72.8378 28.2098V12.2976H69.2603V7.93751H72.8378V7.26674C72.8378 5.72644 73.1483 4.42215 73.7694 3.35388C74.4154 2.26076 75.3097 1.4285 76.4525 0.857102C77.5953 0.285701 78.9493 0 80.5145 0C80.8126 0 81.1355 0.0248432 81.4834 0.0745297C81.856 0.0993744 82.1665 0.13664 82.415 0.186326V4.39731C82.1665 4.34762 81.9305 4.32278 81.7069 4.32278C81.5082 4.29793 81.3219 4.28551 81.148 4.28551C80.0548 4.28551 79.2102 4.53395 78.6139 5.03082C78.0177 5.50284 77.7196 6.24815 77.7196 7.26674V7.93751H82.2287V12.2976H77.7196V28.2098H72.8378ZM5.14261 27.2782C6.75744 28.1974 8.57102 28.657 10.5833 28.657C12.0491 28.657 13.4031 28.4086 14.6453 27.9117C15.8874 27.39 16.9557 26.682 17.8501 25.7876C18.7444 24.8684 19.3904 23.8374 19.7879 22.6946L15.5024 20.7568C15.1297 21.8002 14.5086 22.6325 13.6391 23.2536C12.7696 23.8746 11.751 24.1852 10.5833 24.1852C9.51508 24.1852 8.5586 23.9243 7.71392 23.4026C6.89408 22.8809 6.24815 22.1604 5.77612 21.2412C5.3041 20.322 5.06808 19.2662 5.06808 18.0737C5.06808 16.8812 5.3041 15.8253 5.77612 14.9061C6.24815 13.9869 6.89408 13.2664 7.71392 12.7447C8.5586 12.223 9.51508 11.9622 10.5833 11.9622C11.7262 11.9622 12.7323 12.2727 13.6018 12.8938C14.4962 13.5149 15.1297 14.3347 15.5024 15.3533L19.7879 13.49C19.3904 12.2727 18.732 11.2293 17.8128 10.3598C16.9185 9.46539 15.8502 8.76977 14.608 8.2729C13.3658 7.75118 12.0243 7.49033 10.5833 7.49033C8.57102 7.49033 6.75744 7.94993 5.14261 8.86914C3.55263 9.78835 2.29803 11.043 1.37882 12.6329C0.459606 14.2229 0 16.0241 0 18.0364C0 20.0487 0.459606 21.8623 1.37882 23.4771C2.29803 25.0671 3.55263 26.3342 5.14261 27.2782ZM54.8471 7.93751H50.2635V28.2098H55.1452V16.3222C55.1452 15.4278 55.3191 14.6577 55.6669 14.0118C56.0147 13.3658 56.4992 12.869 57.1203 12.5211C57.7414 12.1485 58.4494 11.9622 59.2444 11.9622C60.0642 11.9622 60.7723 12.1485 61.3685 12.5211C61.9896 12.869 62.4741 13.3658 62.8219 14.0118C63.1697 14.6577 63.3436 15.4278 63.3436 16.3222V28.2098H68.2253V15.167C68.2253 13.6515 67.9024 12.3224 67.2564 11.1796C66.6105 10.0119 65.7037 9.10516 64.5361 8.45922C63.3933 7.81329 62.0766 7.49033 60.586 7.49033C59.145 7.49033 57.878 7.81329 56.7849 8.45922C55.9621 8.93758 55.3162 9.59279 54.8471 10.4248V7.93751ZM87.32 27.2409C88.8852 28.185 90.7112 28.657 92.798 28.657C94.1893 28.657 95.4563 28.4459 96.5991 28.0235C97.7667 27.6012 98.7729 27.0173 99.6176 26.272C100.462 25.5267 101.083 24.6696 101.481 23.7007L97.5307 21.7629C97.0835 22.5579 96.4624 23.1914 95.6674 23.6635C94.8973 24.1355 93.9532 24.3715 92.8353 24.3715C91.7173 24.3715 90.7236 24.1107 89.8541 23.5889C89.0094 23.0672 88.3635 22.3343 87.9163 21.3903C87.6571 20.7958 87.4962 20.1499 87.4335 19.4525H102.04C102.139 19.1792 102.201 18.8562 102.226 18.4836C102.276 18.1109 102.301 17.7507 102.301 17.4029C102.301 16.0365 102.077 14.7695 101.63 13.6018C101.183 12.4093 100.537 11.3535 99.6921 10.4343C98.8474 9.51508 97.8164 8.79461 96.5991 8.2729C95.4066 7.75118 94.0154 7.49033 92.4254 7.49033C90.5373 7.49033 88.8231 7.94993 87.2828 8.86914C85.7673 9.78835 84.5624 11.043 83.668 12.6329C82.7985 14.1981 82.3637 15.9992 82.3637 18.0364C82.3637 19.9991 82.7985 21.7878 83.668 23.4026C84.5375 25.0174 85.7549 26.2969 87.32 27.2409ZM87.5341 15.726C87.6134 15.2981 87.7284 14.9006 87.879 14.5335C88.3013 13.5397 88.91 12.7944 89.705 12.2976C90.5 11.7758 91.4068 11.515 92.4254 11.515C93.4936 11.515 94.4004 11.7758 95.1457 12.2976C95.9159 12.8193 96.4625 13.5273 96.7854 14.4217C96.9444 14.8305 97.0437 15.2652 97.0833 15.726H87.5341ZM113.752 28.657C111.666 28.657 109.84 28.185 108.274 27.2409C106.709 26.2969 105.492 25.0174 104.622 23.4026C103.753 21.7878 103.318 19.9991 103.318 18.0364C103.318 15.9992 103.753 14.1981 104.622 12.6329C105.517 11.043 106.722 9.78835 108.237 8.86914C109.778 7.94993 111.492 7.49033 113.38 7.49033C114.97 7.49033 116.361 7.75118 117.554 8.2729C118.771 8.79461 119.802 9.51508 120.647 10.4343C121.491 11.3535 122.137 12.4093 122.584 13.6018C123.032 14.7695 123.255 16.0365 123.255 17.4029C123.255 17.7507 123.23 18.1109 123.181 18.4836C123.156 18.8562 123.094 19.1792 122.994 19.4525H108.388C108.451 20.1499 108.612 20.7958 108.871 21.3903C109.318 22.3343 109.964 23.0672 110.809 23.5889C111.678 24.1107 112.672 24.3715 113.79 24.3715C114.908 24.3715 115.852 24.1355 116.622 23.6635C117.417 23.1914 118.038 22.5579 118.485 21.7629L122.435 23.7007C122.038 24.6696 121.417 25.5267 120.572 26.272C119.727 27.0173 118.721 27.6012 117.554 28.0235C116.411 28.4459 115.144 28.657 113.752 28.657ZM108.833 14.5335C108.683 14.9006 108.568 15.2981 108.489 15.726H118.038C117.998 15.2652 117.899 14.8305 117.74 14.4217C117.417 13.5273 116.87 12.8193 116.1 12.2976C115.355 11.7758 114.448 11.515 113.38 11.515C112.361 11.515 111.454 11.7758 110.659 12.2976C109.864 12.7944 109.256 13.5397 108.833 14.5335ZM32.0269 10.7416H37.2674C40.5588 10.7416 41.2559 10.7902 41.7076 10.9341C42.9661 11.3352 43.9522 12.3213 44.3533 13.5798C44.4972 14.0315 44.5457 14.7286 44.5457 18.02C44.5457 21.3115 44.4972 22.0086 44.3533 22.4603C43.9522 23.7187 42.9661 24.7048 41.7076 25.1059C41.2559 25.2499 40.5588 25.2984 37.2674 25.2984H32.0269C28.7355 25.2984 28.0384 25.2499 27.5867 25.1059C26.3282 24.7048 25.3421 23.7187 24.941 22.4603C24.7971 22.0086 24.7486 21.3115 24.7486 18.02C24.7486 14.7286 24.7971 14.0315 24.941 13.5798C25.3421 12.3213 26.3282 11.3352 27.5867 10.9341C28.0384 10.7902 28.7355 10.7416 32.0269 10.7416ZM20.6727 18.02C20.6727 15.0399 20.6727 13.5499 21.0576 12.342C21.8598 9.82509 23.832 7.85294 26.3489 7.05072C27.5568 6.66576 29.0468 6.66576 32.0269 6.66576H37.2674C40.2475 6.66576 41.7375 6.66576 42.9454 7.05072C45.4623 7.85294 47.4345 9.82509 48.2367 12.342C48.6216 13.5499 48.6216 15.0399 48.6216 18.02C48.6216 21.0001 48.6216 22.4902 48.2367 23.698C47.4345 26.215 45.4623 28.1871 42.9454 28.9893C41.7375 29.3743 40.2475 29.3743 37.2674 29.3743H33.748L28.0202 33.8747C27.6381 34.1749 27.0782 33.9027 27.0782 33.4169V29.1701C26.8193 29.122 26.579 29.0627 26.3489 28.9893C23.832 28.1871 21.8598 26.215 21.0576 23.698C20.6727 22.4902 20.6727 21.0001 20.6727 18.02ZM29.6164 19.8948C30.6969 19.8948 31.5729 19.0189 31.5729 17.9384C31.5729 16.8579 30.6969 15.9819 29.6164 15.9819C28.5359 15.9819 27.66 16.8579 27.66 17.9384C27.66 19.0189 28.5359 19.8948 29.6164 19.8948ZM36.6036 17.9384C36.6036 19.0189 35.7277 19.8948 34.6472 19.8948C33.5667 19.8948 32.6908 19.0189 32.6908 17.9384C32.6908 16.8578 33.5667 15.9819 34.6472 15.9819C35.7277 15.9819 36.6036 16.8578 36.6036 17.9384ZM39.6781 19.8948C40.7587 19.8948 41.6346 19.0189 41.6346 17.9384C41.6346 16.8578 40.7587 15.9819 39.6781 15.9819C38.5976 15.9819 37.7217 16.8578 37.7217 17.9384C37.7217 19.0189 38.5976 19.8948 39.6781 19.8948Z" fill="url(#paint0_radial_7027_16945)"/>
    <defs>
        <radialGradient id="paint0_radial_7027_16945" cx="0" cy="0" r="1" gradientUnits="userSpaceOnUse" gradientTransform="translate(37.8051 -10.8755) rotate(0.525639) scale(56.4512 167.569)">
            <stop offset="0.192708" stop-color="#fff"/>
            <stop offset="1" stop-color="#fff"/>
        </radialGradient>
    </defs>
</svg>
